<?xml version="1.0" encoding="UTF-8" standalone="no"?>
<svg
   width="1365.3334"
   zoomAndPan="magnify"
   viewBox="0 0 1024 262.71057"
   height="350.28076"
   preserveAspectRatio="xMidYMid"
   version="1.0"
   id="svg115"
   sodipodi:docname="AJ AUTO ACCESS WEB HEADER TRANSPARENT.svg"
   inkscape:version="1.4.2 (f4327f4, 2025-05-13)"
   xmlns:inkscape="http://www.inkscape.org/namespaces/inkscape"
   xmlns:sodipodi="http://sodipodi.sourceforge.net/DTD/sodipodi-0.dtd"
   xmlns="http://www.w3.org/2000/svg"
   xmlns:svg="http://www.w3.org/2000/svg">
  <sodipodi:namedview
     id="namedview115"
     pagecolor="#ffffff"
     bordercolor="#000000"
     borderopacity="0.25"
     inkscape:showpageshadow="2"
     inkscape:pageopacity="0.0"
     inkscape:pagecheckerboard="0"
     inkscape:deskcolor="#d1d1d1"
     inkscape:zoom="0.78352587"
     inkscape:cx="714.0798"
     inkscape:cy="128.26634"
     inkscape:window-width="1920"
     inkscape:window-height="1111"
     inkscape:window-x="-9"
     inkscape:window-y="-9"
     inkscape:window-maximized="1"
     inkscape:current-layer="svg115" />
  <defs
     id="defs5">
    <g
       id="g1" />
    <clipPath
       id="95bbb8e155">
      <path
         d="M 0,0.140625 H 1024 V 575.85937 H 0 Z m 0,0"
         clip-rule="nonzero"
         id="path1" />
    </clipPath>
    <clipPath
       id="d8d1198800">
      <path
         d="M 46.242188,249.83984 H 197.375 v 119.0586 H 46.242188 Z m 0,0"
         clip-rule="nonzero"
         id="path2" />
    </clipPath>
    <clipPath
       id="c25126753a">
      <path
         d="M 64,159.00391 H 180 V 256 H 64 Z m 0,0"
         clip-rule="nonzero"
         id="path3" />
    </clipPath>
    <clipPath
       id="73cef5eaaa">
      <rect
         x="0"
         width="388"
         y="0"
         height="94"
         id="rect3" />
    </clipPath>
    <clipPath
       id="30d4775261">
      <rect
         x="0"
         width="361"
         y="0"
         height="94"
         id="rect4" />
    </clipPath>
    <clipPath
       clipPathUnits="userSpaceOnUse"
       id="clipPath115">
      <rect
         x="7.6293945e-06"
         width="628"
         y="-7.6293945e-06"
         height="29"
         id="rect115"
         style="stroke-width:0.999997" />
    </clipPath>
    <clipPath
       clipPathUnits="userSpaceOnUse"
       id="clipPath116">
      <rect
         x="7.6293945e-06"
         width="628"
         y="-7.6293945e-06"
         height="29"
         id="rect116"
         style="stroke-width:0.999997" />
    </clipPath>
    <clipPath
       clipPathUnits="userSpaceOnUse"
       id="clipPath117">
      <rect
         x="7.6293945e-06"
         width="628"
         y="-7.6293945e-06"
         height="29"
         id="rect117"
         style="stroke-width:0.999997" />
    </clipPath>
    <clipPath
       clipPathUnits="userSpaceOnUse"
       id="clipPath118">
      <rect
         x="7.6293945e-06"
         width="628"
         y="-7.6293945e-06"
         height="29"
         id="rect118"
         style="stroke-width:0.999997" />
    </clipPath>
    <clipPath
       clipPathUnits="userSpaceOnUse"
       id="clipPath119">
      <rect
         x="7.6293945e-06"
         width="628"
         y="-7.6293945e-06"
         height="29"
         id="rect119"
         style="stroke-width:0.999997" />
    </clipPath>
    <clipPath
       clipPathUnits="userSpaceOnUse"
       id="clipPath120">
      <rect
         x="7.6293945e-06"
         width="628"
         y="-7.6293945e-06"
         height="29"
         id="rect120"
         style="stroke-width:0.999997" />
    </clipPath>
    <clipPath
       clipPathUnits="userSpaceOnUse"
       id="clipPath121">
      <rect
         x="7.6293945e-06"
         width="628"
         y="-7.6293945e-06"
         height="29"
         id="rect121"
         style="stroke-width:0.999997" />
    </clipPath>
    <clipPath
       clipPathUnits="userSpaceOnUse"
       id="clipPath122">
      <rect
         x="7.6293945e-06"
         width="628"
         y="-7.6293945e-06"
         height="29"
         id="rect122"
         style="stroke-width:0.999997" />
    </clipPath>
    <clipPath
       clipPathUnits="userSpaceOnUse"
       id="clipPath123">
      <rect
         x="7.6293945e-06"
         width="628"
         y="-7.6293945e-06"
         height="29"
         id="rect123"
         style="stroke-width:0.999997" />
    </clipPath>
    <clipPath
       clipPathUnits="userSpaceOnUse"
       id="clipPath124">
      <rect
         x="7.6293945e-06"
         width="628"
         y="-7.6293945e-06"
         height="29"
         id="rect124"
         style="stroke-width:0.999997" />
    </clipPath>
    <clipPath
       clipPathUnits="userSpaceOnUse"
       id="clipPath125">
      <rect
         x="7.6293945e-06"
         width="628"
         y="-7.6293945e-06"
         height="29"
         id="rect125"
         style="stroke-width:0.999997" />
    </clipPath>
    <clipPath
       clipPathUnits="userSpaceOnUse"
       id="clipPath126">
      <rect
         x="7.6293945e-06"
         width="628"
         y="-7.6293945e-06"
         height="29"
         id="rect126"
         style="stroke-width:0.999997" />
    </clipPath>
    <clipPath
       clipPathUnits="userSpaceOnUse"
       id="clipPath127">
      <rect
         x="7.6293945e-06"
         width="628"
         y="-7.6293945e-06"
         height="29"
         id="rect127"
         style="stroke-width:0.999997" />
    </clipPath>
    <clipPath
       clipPathUnits="userSpaceOnUse"
       id="clipPath128">
      <rect
         x="7.6293945e-06"
         width="628"
         y="-7.6293945e-06"
         height="29"
         id="rect128"
         style="stroke-width:0.999997" />
    </clipPath>
    <clipPath
       clipPathUnits="userSpaceOnUse"
       id="clipPath129">
      <rect
         x="7.6293945e-06"
         width="628"
         y="-7.6293945e-06"
         height="29"
         id="rect129"
         style="stroke-width:0.999997" />
    </clipPath>
    <clipPath
       clipPathUnits="userSpaceOnUse"
       id="clipPath130">
      <rect
         x="7.6293945e-06"
         width="628"
         y="-7.6293945e-06"
         height="29"
         id="rect130"
         style="stroke-width:0.999997" />
    </clipPath>
    <clipPath
       clipPathUnits="userSpaceOnUse"
       id="clipPath131">
      <rect
         x="7.6293945e-06"
         width="628"
         y="-7.6293945e-06"
         height="29"
         id="rect131"
         style="stroke-width:0.999997" />
    </clipPath>
    <clipPath
       clipPathUnits="userSpaceOnUse"
       id="clipPath132">
      <rect
         x="7.6293945e-06"
         width="628"
         y="-7.6293945e-06"
         height="29"
         id="rect132"
         style="stroke-width:0.999997" />
    </clipPath>
    <clipPath
       clipPathUnits="userSpaceOnUse"
       id="clipPath133">
      <rect
         x="7.6293945e-06"
         width="628"
         y="-7.6293945e-06"
         height="29"
         id="rect133"
         style="stroke-width:0.999997" />
    </clipPath>
  </defs>
  <g
     clip-path="url(#d8d1198800)"
     id="g7"
     transform="translate(0,-138.93629)">
    <path
       fill="#dfff00"
       d="m 57.375,255.73437 c -2.957031,0 -5.359375,2.40625 -5.359375,5.35938 v 97.03906 c 0,2.95313 2.402344,5.35938 5.359375,5.35938 h 128.87109 c 2.95313,0 5.35938,-2.40625 5.35938,-5.35938 v -97.03906 c 0,-2.95313 -2.40625,-5.35938 -5.35938,-5.35938 z M 186.24609,369.26172 H 57.375 c -6.136719,0 -11.132812,-4.99219 -11.132812,-11.12891 v -97.03906 c 0,-6.13672 4.996093,-11.12891 11.132812,-11.12891 h 128.87109 c 6.13672,0 11.12891,4.99219 11.12891,11.12891 v 97.03906 c 0,6.13672 -4.99219,11.12891 -11.12891,11.12891"
       fill-opacity="1"
       fill-rule="nonzero"
       id="path7" />
  </g>
  <g
     clip-path="url(#c25126753a)"
     id="g8"
     transform="translate(0,-138.93629)">
    <path
       fill="#dfff00"
       d="m 176.73047,255.28906 c -1.59375,0 -2.88672,-1.29297 -2.88672,-2.88672 v -35.59375 c 0,-7.01562 -1.375,-13.83203 -4.09375,-20.25781 -2.62109,-6.19922 -6.37109,-11.76172 -11.14453,-16.53516 -4.77344,-4.77343 -10.33985,-8.52343 -16.53516,-11.14843 -6.42578,-2.71485 -13.24219,-4.09375 -20.26172,-4.09375 -7.01562,0 -13.83203,1.3789 -20.25781,4.09375 -6.195311,2.625 -11.761718,6.375 -16.535155,11.14843 -4.773437,4.77344 -8.523437,10.33594 -11.148437,16.53516 -2.714844,6.42578 -4.09375,13.24219 -4.09375,20.25781 V 228.25 c 0,1.38672 0.542968,2.69141 1.523437,3.67187 0.980469,0.98047 2.285156,1.51954 3.671875,1.51954 2.867188,0 5.195312,-2.32813 5.195312,-5.19141 v -11.44141 c 0,-11.12109 4.332032,-21.58203 12.199219,-29.44531 7.863279,-7.86719 18.324219,-12.19922 29.445309,-12.19922 11.125,0 21.58203,4.33203 29.44922,12.19922 7.86719,7.86328 12.19922,18.32422 12.19922,29.44531 v 35.59375 c 0,1.59375 -1.29297,2.88672 -2.88672,2.88672 -1.59375,0 -2.88672,-1.29297 -2.88672,-2.88672 v -35.59375 c 0,-19.77734 -16.09375,-35.87109 -35.875,-35.87109 -19.77734,0 -35.87109,16.09375 -35.87109,35.87109 V 228.25 c 0,6.04687 -4.921875,10.96484 -10.96875,10.96484 -2.929688,0 -5.683594,-1.14062 -7.753906,-3.21093 -2.070313,-2.07032 -3.210938,-4.82422 -3.210938,-7.75391 v -11.44141 c 0,-7.79297 1.53125,-15.36718 4.550782,-22.5039 2.910156,-6.88672 7.078124,-13.06641 12.378906,-18.3711 5.304687,-5.30078 11.484375,-9.46875 18.371094,-12.3789 7.136722,-3.01953 14.710942,-4.55078 22.503902,-4.55078 7.79688,0 15.36719,1.53125 22.50782,4.55078 6.88671,2.91015 13.0664,7.07812 18.36718,12.3789 5.30469,5.30469 9.46875,11.48438 12.38282,18.3711 3.01953,7.13672 4.55078,14.71093 4.55078,22.5039 v 35.59375 c 0,1.59375 -1.29297,2.88672 -2.88672,2.88672"
       fill-opacity="1"
       fill-rule="nonzero"
       id="path8" />
  </g>
  <path
     fill="#dfff00"
     d="m 129.55078,174.21605 c -1.01562,0 -2.0039,-0.53906 -2.53125,-1.49609 -0.76562,-1.39453 -0.25781,-3.14844 1.14063,-3.91797 4.15625,-2.28516 6.78125,-6.64453 6.84765,-11.37891 0.10156,-7.21093 -5.67187,-13.21875 -12.875,-13.39062 -3.58984,-0.0859 -6.98047,1.25 -9.54297,3.75391 -2.5664,2.5039 -3.98046,5.85937 -3.98046,9.44531 0,4.8125 2.625,9.25 6.85156,11.57031 1.39453,0.76953 1.90625,2.52344 1.13672,3.91797 -0.76563,1.39844 -2.51953,1.91016 -3.91797,1.14062 -6.07031,-3.33593 -9.84375,-9.71093 -9.84375,-16.6289 0,-5.15625 2.03125,-9.97656 5.71875,-13.57813 3.6875,-3.59765 8.55469,-5.51172 13.71484,-5.39062 10.35547,0.24609 18.65625,8.8789 18.51172,19.24219 -0.0977,6.80468 -3.86719,13.07421 -9.83984,16.35546 -0.44141,0.24219 -0.91797,0.35547 -1.39063,0.35547"
     fill-opacity="1"
     fill-rule="nonzero"
     id="path9" />
  <path
     fill="#dfff00"
     d="m 121.80859,203.09887 c -5.85937,0 -10.625,-4.76954 -10.625,-10.62891 v -21.13672 c 0,-1.59375 1.29297,-2.88672 2.88672,-2.88672 1.59375,0 2.88672,1.29297 2.88672,2.88672 v 21.13672 c 0,2.67969 2.17578,4.85547 4.85156,4.85547 2.67969,0 4.85547,-2.17578 4.85547,-4.85547 v -21.13672 c 0,-1.59375 1.29297,-2.88672 2.88672,-2.88672 1.59375,0 2.88672,1.29297 2.88672,2.88672 v 21.13672 c 0,5.85937 -4.76953,10.62891 -10.62891,10.62891"
     fill-opacity="1"
     fill-rule="nonzero"
     id="path10" />
  <g
     transform="translate(220.35817,101.06371)"
     id="g33">
    <g
       clip-path="url(#73cef5eaaa)"
       id="g32">
      <g
         fill="#ffffff"
         fill-opacity="1"
         id="g13">
        <g
           transform="translate(0.147383,70.233645)"
           id="g12">
          <g
             id="g11">
            <path
               d="m 40.546875,-45.921875 23.8125,42.4375 V 0 H 53.015625 L 48.09375,-9.125 H 17.328125 L 12.40625,0 H 1.375 v -3.484375 l 23.75,-42.4375 z M 22.5625,-18.96875 h 20.28125 l -9.25,-17.25 h -1.703125 z m 0,0"
               id="path11" />
          </g>
        </g>
      </g>
      <g
         fill="#ffffff"
         fill-opacity="1"
         id="g16">
        <g
           transform="translate(65.876132,70.233645)"
           id="g15">
          <g
             id="g14">
            <path
               d="m 2.828125,0 v -10.234375 h 21.375 l 4.796875,-4 v -21.84375 H 6.03125 v -9.84375 H 40.671875 V -9.90625 L 28.9375,0 Z m 0,0"
               id="path13" />
          </g>
        </g>
      </g>
      <g
         fill="#ffffff"
         fill-opacity="1"
         id="g19">
        <g
           transform="translate(112.45039,70.233645)"
           id="g18">
          <g
             id="g17" />
        </g>
      </g>
      <g
         fill="#ffffff"
         fill-opacity="1"
         id="g22">
        <g
           transform="translate(136.39244,70.233645)"
           id="g21">
          <g
             id="g20">
            <path
               d="m 40.546875,-45.921875 23.8125,42.4375 V 0 H 53.015625 L 48.09375,-9.125 H 17.328125 L 12.40625,0 H 1.375 v -3.484375 l 23.75,-42.4375 z M 22.5625,-18.96875 h 20.28125 l -9.25,-17.25 h -1.703125 z m 0,0"
               id="path19" />
          </g>
        </g>
      </g>
      <g
         fill="#ffffff"
         fill-opacity="1"
         id="g25">
        <g
           transform="translate(200.15273,70.233645)"
           id="g24">
          <g
             id="g23">
            <path
               d="M 18.703125,0 5.90625,-10.828125 v -35.09375 h 11.671875 v 30.703125 l 5.96875,4.984375 H 40.15625 L 46.125,-15.21875 v -30.703125 h 11.671875 v 35.09375 L 45.015625,0 Z m 0,0"
               id="path22" />
          </g>
        </g>
      </g>
      <g
         fill="#ffffff"
         fill-opacity="1"
         id="g28">
        <g
           transform="translate(263.84796,70.233645)"
           id="g27">
          <g
             id="g26">
            <path
               d="M 22.703125,0 V -36.078125 H 0.984375 v -9.84375 H 56.09375 v 9.84375 H 34.375 V 0 Z m 0,0"
               id="path25" />
          </g>
        </g>
      </g>
      <g
         fill="#ffffff"
         fill-opacity="1"
         id="g31">
        <g
           transform="translate(318.94938,70.233645)"
           id="g30">
          <g
             id="g29">
            <path
               d="M 17.515625,0 5.25,-10.234375 V -35.6875 l 12.265625,-10.234375 h 32.8125 L 62.59375,-35.6875 v 25.453125 L 50.328125,0 Z m 5.25,-9.84375 h 22.3125 l 5.828125,-4.921875 v -16.40625 l -5.828125,-4.90625 h -22.3125 l -5.84375,4.90625 v 16.40625 z m 0,0"
               id="path28" />
          </g>
        </g>
      </g>
    </g>
  </g>
  <g
     transform="translate(626.35817,101.06371)"
     id="g53">
    <g
       clip-path="url(#30d4775261)"
       id="g52">
      <g
         fill="#ffffff"
         fill-opacity="1"
         id="g36">
        <g
           transform="translate(0.913085,70.233645)"
           id="g35">
          <g
             id="g34">
            <path
               d="m 40.546875,-45.921875 23.8125,42.4375 V 0 H 53.015625 L 48.09375,-9.125 H 17.328125 L 12.40625,0 H 1.375 v -3.484375 l 23.75,-42.4375 z M 22.5625,-18.96875 h 20.28125 l -9.25,-17.25 h -1.703125 z m 0,0"
               id="path33" />
          </g>
        </g>
      </g>
      <g
         fill="#ffffff"
         fill-opacity="1"
         id="g39">
        <g
           transform="translate(65.329522,70.233645)"
           id="g38">
          <g
             id="g37">
            <path
               d="M 17.515625,0 5.25,-10.234375 V -35.6875 L 17.515625,-45.921875 H 54.78125 v 9.84375 H 22.765625 l -5.84375,4.90625 v 16.40625 l 5.84375,4.921875 H 54.78125 V 0 Z m 0,0"
               id="path36" />
          </g>
        </g>
      </g>
      <g
         fill="#ffffff"
         fill-opacity="1"
         id="g42">
        <g
           transform="translate(122.00544,70.233645)"
           id="g41">
          <g
             id="g40">
            <path
               d="M 17.515625,0 5.25,-10.234375 V -35.6875 L 17.515625,-45.921875 H 54.78125 v 9.84375 H 22.765625 l -5.84375,4.90625 v 16.40625 l 5.84375,4.921875 H 54.78125 V 0 Z m 0,0"
               id="path39" />
          </g>
        </g>
      </g>
      <g
         fill="#ffffff"
         fill-opacity="1"
         id="g45">
        <g
           transform="translate(179.99367,70.233645)"
           id="g44">
          <g
             id="g43">
            <path
               d="M 6.890625,0 V -45.921875 H 56.6875 v 9.703125 h -38.125 v 8.65625 H 47.5 v 8.859375 H 18.5625 v 9 H 57.46875 V 0 Z m 0,0"
               id="path42" />
          </g>
        </g>
      </g>
      <g
         fill="#ffffff"
         fill-opacity="1"
         id="g48">
        <g
           transform="translate(240.86821,70.233645)"
           id="g47">
          <g
             id="g46">
            <path
               d="m 5.3125,0 v -9.515625 h 36.421875 l 3.140625,-2.625 V -15.75 l -3.140625,-2.625 H 13.90625 L 4.265625,-26.5 v -11.296875 l 9.640625,-8.125 h 39.890625 v 9.515625 H 19.09375 l -3.15625,2.625 v 3.140625 l 3.15625,2.625 h 27.8125 L 56.5625,-19.875 V -8.140625 L 46.90625,0 Z m 0,0"
               id="path45" />
          </g>
        </g>
      </g>
      <g
         fill="#ffffff"
         fill-opacity="1"
         id="g51">
        <g
           transform="translate(299.57766,70.233645)"
           id="g50">
          <g
             id="g49">
            <path
               d="m 5.3125,0 v -9.515625 h 36.421875 l 3.140625,-2.625 V -15.75 l -3.140625,-2.625 H 13.90625 L 4.265625,-26.5 v -11.296875 l 9.640625,-8.125 h 39.890625 v 9.515625 H 19.09375 l -3.15625,2.625 v 3.140625 l 3.15625,2.625 h 27.8125 L 56.5625,-19.875 V -8.140625 L 46.90625,0 Z m 0,0"
               id="path48" />
          </g>
        </g>
      </g>
    </g>
  </g>
  <g
     id="g133"
     transform="matrix(1.1367813,0,0,1.1367813,-61.959415,-187.28128)">
    <g
       fill="#ffffff"
       fill-opacity="1"
       id="g56"
       transform="translate(269.5,341)"
       clip-path="url(#clipPath133)">
      <g
         transform="translate(1.249224,21.933451)"
         id="g55">
        <g
           id="g54">
          <path
             d="M 7.125,-16.359375 H 8.484375 L 15.28125,0 h -1.703125 l -2.125,-5.109375 H 4.109375 L 2,0 H 0.28125 Z m 3.953125,9.96875 -3.28125,-8.078125 -3.34375,8.078125 z m 0,0"
             id="path53" />
        </g>
      </g>
    </g>
    <g
       fill="#ffffff"
       fill-opacity="1"
       id="g59"
       transform="translate(269.5,341)"
       clip-path="url(#clipPath132)">
      <g
         transform="translate(33.054092,21.933451)"
         id="g58">
        <g
           id="g57">
          <path
             d="m 8.71875,0.109375 c -1.292969,0 -2.386719,-0.226563 -3.28125,-0.6875 C 4.550781,-1.035156 3.84375,-1.648438 3.3125,-2.421875 2.789062,-3.203125 2.410156,-4.082031 2.171875,-5.0625 1.941406,-6.050781 1.828125,-7.066406 1.828125,-8.109375 v -8.25 H 3.40625 v 8.25 c 0,0.84375 0.085938,1.671875 0.265625,2.484375 0.175781,0.8125 0.460937,1.542969 0.859375,2.1875 0.40625,0.648438 0.945312,1.15625 1.625,1.53125 0.675781,0.375 1.519531,0.5625 2.53125,0.5625 1.039062,0 1.90625,-0.191406 2.59375,-0.578125 0.6875,-0.394531 1.222656,-0.914063 1.609375,-1.5625 0.394531,-0.644531 0.675781,-1.367187 0.84375,-2.171875 0.164063,-0.8125 0.25,-1.628906 0.25,-2.453125 v -8.25 h 1.625 v 8.25 c 0,1.09375 -0.125,2.140625 -0.375,3.140625 -0.25,0.992188 -0.648437,1.867188 -1.1875,2.625 -0.542969,0.75 -1.25,1.351562 -2.125,1.796875 -0.875,0.4375 -1.945313,0.65625 -3.203125,0.65625 z m 0,0"
             id="path56" />
        </g>
      </g>
    </g>
    <g
       fill="#ffffff"
       fill-opacity="1"
       id="g62"
       transform="translate(269.5,341)"
       clip-path="url(#clipPath131)">
      <g
         transform="translate(67.370666,21.933451)"
         id="g61">
        <g
           id="g60">
          <path
             d="M 13.671875,-14.9375 H 7.84375 V 0 h -1.625 V -14.9375 H 0.390625 v -1.421875 h 13.28125 z m 0,0"
             id="path59" />
        </g>
      </g>
    </g>
    <g
       fill="#ffffff"
       fill-opacity="1"
       id="g65"
       transform="translate(269.5,341)"
       clip-path="url(#clipPath130)">
      <g
         transform="translate(97.769973,21.933451)"
         id="g64">
        <g
           id="g63">
          <path
             d="m 8.640625,0.109375 c -1.148437,0 -2.1875,-0.226563 -3.125,-0.6875 -0.9375,-0.457031 -1.746094,-1.082031 -2.421875,-1.875 C 2.414062,-3.242188 1.890625,-4.132812 1.515625,-5.125 1.148438,-6.113281 0.96875,-7.132812 0.96875,-8.1875 c 0,-1.082031 0.191406,-2.117188 0.578125,-3.109375 0.382813,-1 0.925781,-1.882813 1.625,-2.65625 0.695313,-0.78125 1.515625,-1.394531 2.453125,-1.84375 0.9375,-0.457031 1.953125,-0.6875 3.046875,-0.6875 1.144531,0 2.1875,0.242187 3.125,0.71875 0.9375,0.480469 1.738281,1.121094 2.40625,1.921875 0.675781,0.792969 1.195313,1.683594 1.5625,2.671875 0.363281,0.980469 0.546875,1.984375 0.546875,3.015625 0,1.09375 -0.195312,2.136719 -0.578125,3.125 -0.375,0.992188 -0.914063,1.875 -1.609375,2.65625 -0.6875,0.773438 -1.5,1.382812 -2.4375,1.828125 -0.9375,0.4375 -1.953125,0.65625 -3.046875,0.65625 z M 2.578125,-8.1875 c 0,0.898438 0.144531,1.757812 0.4375,2.578125 0.289063,0.824219 0.707031,1.554687 1.25,2.1875 0.539063,0.636719 1.179687,1.140625 1.921875,1.515625 0.75,0.375 1.566406,0.5625 2.453125,0.5625 0.9375,0 1.773437,-0.191406 2.515625,-0.578125 0.75,-0.394531 1.390625,-0.914063 1.921875,-1.5625 0.53125,-0.65625 0.929687,-1.390625 1.203125,-2.203125 0.28125,-0.820312 0.421875,-1.65625 0.421875,-2.5 0,-0.882812 -0.148437,-1.734375 -0.4375,-2.546875 C 13.972656,-11.554688 13.550781,-12.285156 13,-12.921875 12.457031,-13.566406 11.816406,-14.070312 11.078125,-14.4375 10.347656,-14.8125 9.535156,-15 8.640625,-15 c -0.917969,0 -1.75,0.195312 -2.5,0.578125 -0.742187,0.386719 -1.375,0.90625 -1.90625,1.5625 -0.53125,0.648437 -0.945313,1.375 -1.234375,2.1875 -0.28125,0.8125 -0.421875,1.640625 -0.421875,2.484375 z m 0,0"
             id="path62" />
        </g>
      </g>
    </g>
    <g
       fill="#ffffff"
       fill-opacity="1"
       id="g68"
       transform="translate(269.5,341)"
       clip-path="url(#clipPath129)">
      <g
         transform="translate(131.99437,21.933451)"
         id="g67">
        <g
           id="g66">
          <path
             d="M 16.546875,0 V -13.328125 L 10.625,-2.96875 H 9.609375 l -5.9375,-10.359375 V 0 h -1.625 v -16.359375 h 1.65625 l 6.390625,11.203125 6.4375,-11.203125 h 1.625 V 0 Z m 0,0"
             id="path65" />
        </g>
      </g>
    </g>
    <g
       fill="#ffffff"
       fill-opacity="1"
       id="g71"
       transform="translate(269.5,341)"
       clip-path="url(#clipPath128)">
      <g
         transform="translate(169.1221,21.933451)"
         id="g70">
        <g
           id="g69">
          <path
             d="m 8.640625,0.109375 c -1.148437,0 -2.1875,-0.226563 -3.125,-0.6875 -0.9375,-0.457031 -1.746094,-1.082031 -2.421875,-1.875 C 2.414062,-3.242188 1.890625,-4.132812 1.515625,-5.125 1.148438,-6.113281 0.96875,-7.132812 0.96875,-8.1875 c 0,-1.082031 0.191406,-2.117188 0.578125,-3.109375 0.382813,-1 0.925781,-1.882813 1.625,-2.65625 0.695313,-0.78125 1.515625,-1.394531 2.453125,-1.84375 0.9375,-0.457031 1.953125,-0.6875 3.046875,-0.6875 1.144531,0 2.1875,0.242187 3.125,0.71875 0.9375,0.480469 1.738281,1.121094 2.40625,1.921875 0.675781,0.792969 1.195313,1.683594 1.5625,2.671875 0.363281,0.980469 0.546875,1.984375 0.546875,3.015625 0,1.09375 -0.195312,2.136719 -0.578125,3.125 -0.375,0.992188 -0.914063,1.875 -1.609375,2.65625 -0.6875,0.773438 -1.5,1.382812 -2.4375,1.828125 -0.9375,0.4375 -1.953125,0.65625 -3.046875,0.65625 z M 2.578125,-8.1875 c 0,0.898438 0.144531,1.757812 0.4375,2.578125 0.289063,0.824219 0.707031,1.554687 1.25,2.1875 0.539063,0.636719 1.179687,1.140625 1.921875,1.515625 0.75,0.375 1.566406,0.5625 2.453125,0.5625 0.9375,0 1.773437,-0.191406 2.515625,-0.578125 0.75,-0.394531 1.390625,-0.914063 1.921875,-1.5625 0.53125,-0.65625 0.929687,-1.390625 1.203125,-2.203125 0.28125,-0.820312 0.421875,-1.65625 0.421875,-2.5 0,-0.882812 -0.148437,-1.734375 -0.4375,-2.546875 C 13.972656,-11.554688 13.550781,-12.285156 13,-12.921875 12.457031,-13.566406 11.816406,-14.070312 11.078125,-14.4375 10.347656,-14.8125 9.535156,-15 8.640625,-15 c -0.917969,0 -1.75,0.195312 -2.5,0.578125 -0.742187,0.386719 -1.375,0.90625 -1.90625,1.5625 -0.53125,0.648437 -0.945313,1.375 -1.234375,2.1875 -0.28125,0.8125 -0.421875,1.640625 -0.421875,2.484375 z m 0,0"
             id="path68" />
        </g>
      </g>
    </g>
    <g
       fill="#ffffff"
       fill-opacity="1"
       id="g74"
       transform="translate(269.5,341)"
       clip-path="url(#clipPath127)">
      <g
         transform="translate(202.77035,21.933451)"
         id="g73">
        <g
           id="g72">
          <path
             d="M 13.671875,-14.9375 H 7.84375 V 0 h -1.625 V -14.9375 H 0.390625 v -1.421875 h 13.28125 z m 0,0"
             id="path71" />
        </g>
      </g>
    </g>
    <g
       fill="#ffffff"
       fill-opacity="1"
       id="g77"
       transform="translate(269.5,341)"
       clip-path="url(#clipPath126)">
      <g
         transform="translate(233.74579,21.933451)"
         id="g76">
        <g
           id="g75">
          <path
             d="m 2.046875,0 v -16.359375 h 1.625 V 0 Z m 0,0"
             id="path74" />
        </g>
      </g>
    </g>
    <g
       fill="#ffffff"
       fill-opacity="1"
       id="g80"
       transform="translate(269.5,341)"
       clip-path="url(#clipPath125)">
      <g
         transform="translate(256.37996,21.933451)"
         id="g79">
        <g
           id="g78">
          <path
             d="M 1.984375,-16.359375 7.84375,-2 13.671875,-16.359375 H 15.34375 L 8.578125,0 H 7.09375 L 0.296875,-16.359375 Z m 0,0"
             id="path77" />
        </g>
      </g>
    </g>
    <g
       fill="#ffffff"
       fill-opacity="1"
       id="g83"
       transform="translate(269.5,341)"
       clip-path="url(#clipPath124)">
      <g
         transform="translate(288.94535,21.933451)"
         id="g82">
        <g
           id="g81">
          <path
             d="M 13.046875,-1.421875 V 0 h -11 V -16.359375 H 12.84375 V -14.9375 H 3.671875 v 5.90625 h 7.984375 v 1.359375 H 3.671875 v 6.25 z m 0,0"
             id="path80" />
        </g>
      </g>
    </g>
    <g
       fill="#ffffff"
       fill-opacity="1"
       id="g86"
       transform="translate(295,341)"
       clip-path="url(#clipPath123)">
      <g
         transform="translate(319.89776,21.933451)"
         id="g85">
        <g
           id="g84">
          <path
             d="m 2.046875,0 v -16.359375 h 1.625 v 14.9375 h 9.4375 V 0 Z m 0,0"
             id="path83" />
        </g>
      </g>
    </g>
    <g
       fill="#ffffff"
       fill-opacity="1"
       id="g89"
       transform="translate(295,341)"
       clip-path="url(#clipPath122)">
      <g
         transform="translate(349.58276,21.933451)"
         id="g88">
        <g
           id="g87">
          <path
             d="m 8.640625,0.109375 c -1.148437,0 -2.1875,-0.226563 -3.125,-0.6875 -0.9375,-0.457031 -1.746094,-1.082031 -2.421875,-1.875 C 2.414062,-3.242188 1.890625,-4.132812 1.515625,-5.125 1.148438,-6.113281 0.96875,-7.132812 0.96875,-8.1875 c 0,-1.082031 0.191406,-2.117188 0.578125,-3.109375 0.382813,-1 0.925781,-1.882813 1.625,-2.65625 0.695313,-0.78125 1.515625,-1.394531 2.453125,-1.84375 0.9375,-0.457031 1.953125,-0.6875 3.046875,-0.6875 1.144531,0 2.1875,0.242187 3.125,0.71875 0.9375,0.480469 1.738281,1.121094 2.40625,1.921875 0.675781,0.792969 1.195313,1.683594 1.5625,2.671875 0.363281,0.980469 0.546875,1.984375 0.546875,3.015625 0,1.09375 -0.195312,2.136719 -0.578125,3.125 -0.375,0.992188 -0.914063,1.875 -1.609375,2.65625 -0.6875,0.773438 -1.5,1.382812 -2.4375,1.828125 -0.9375,0.4375 -1.953125,0.65625 -3.046875,0.65625 z M 2.578125,-8.1875 c 0,0.898438 0.144531,1.757812 0.4375,2.578125 0.289063,0.824219 0.707031,1.554687 1.25,2.1875 0.539063,0.636719 1.179687,1.140625 1.921875,1.515625 0.75,0.375 1.566406,0.5625 2.453125,0.5625 0.9375,0 1.773437,-0.191406 2.515625,-0.578125 0.75,-0.394531 1.390625,-0.914063 1.921875,-1.5625 0.53125,-0.65625 0.929687,-1.390625 1.203125,-2.203125 0.28125,-0.820312 0.421875,-1.65625 0.421875,-2.5 0,-0.882812 -0.148437,-1.734375 -0.4375,-2.546875 C 13.972656,-11.554688 13.550781,-12.285156 13,-12.921875 12.457031,-13.566406 11.816406,-14.070312 11.078125,-14.4375 10.347656,-14.8125 9.535156,-15 8.640625,-15 c -0.917969,0 -1.75,0.195312 -2.5,0.578125 -0.742187,0.386719 -1.375,0.90625 -1.90625,1.5625 -0.53125,0.648437 -0.945313,1.375 -1.234375,2.1875 -0.28125,0.8125 -0.421875,1.640625 -0.421875,2.484375 z m 0,0"
             id="path86" />
        </g>
      </g>
    </g>
    <g
       fill="#ffffff"
       fill-opacity="1"
       id="g92"
       transform="translate(295,341)"
       clip-path="url(#clipPath121)">
      <g
         transform="translate(383.80714,21.933451)"
         id="g91">
        <g
           id="g90">
          <path
             d="m 0.96875,-8.296875 c 0,-1 0.171875,-1.976563 0.515625,-2.9375 0.34375,-0.957031 0.84375,-1.832031 1.5,-2.625 C 3.648438,-14.648438 4.46875,-15.28125 5.4375,-15.75 c 0.96875,-0.46875 2.066406,-0.703125 3.296875,-0.703125 1.457031,0 2.703125,0.335937 3.734375,1 1.039062,0.667969 1.804688,1.523437 2.296875,2.5625 L 13.5,-12.09375 c -0.355469,-0.726562 -0.804688,-1.300781 -1.34375,-1.71875 -0.53125,-0.425781 -1.101562,-0.726562 -1.703125,-0.90625 C 9.847656,-14.90625 9.242188,-15 8.640625,-15 c -0.980469,0 -1.851563,0.199219 -2.609375,0.59375 -0.75,0.386719 -1.386719,0.90625 -1.90625,1.5625 -0.511719,0.648438 -0.898438,1.375 -1.15625,2.1875 -0.261719,0.804688 -0.390625,1.621094 -0.390625,2.453125 0,0.90625 0.148437,1.777344 0.453125,2.609375 0.3125,0.824219 0.742188,1.558594 1.296875,2.203125 0.550781,0.636719 1.195313,1.140625 1.9375,1.515625 0.75,0.375 1.566406,0.5625 2.453125,0.5625 0.613281,0 1.238281,-0.101562 1.875,-0.3125 0.644531,-0.21875 1.25,-0.550781 1.8125,-1 0.5625,-0.445312 1.015625,-1.023438 1.359375,-1.734375 l 1.328125,0.6875 c -0.335938,0.824219 -0.855469,1.523437 -1.5625,2.09375 -0.710938,0.5625 -1.5,0.992187 -2.375,1.28125 -0.867188,0.29296875 -1.710938,0.4375 -2.53125,0.4375 -1.125,0 -2.15625,-0.2382812 -3.09375,-0.71875 -0.9375,-0.488281 -1.75,-1.132813 -2.4375,-1.9375 -0.679688,-0.8125 -1.203125,-1.71875 -1.578125,-2.71875 -0.367187,-1.007813 -0.546875,-2.03125 -0.546875,-3.0625 z m 0,0"
             id="path89" />
        </g>
      </g>
    </g>
    <g
       fill="#ffffff"
       fill-opacity="1"
       id="g95"
       transform="translate(295,341)"
       clip-path="url(#clipPath120)">
      <g
         transform="translate(416.5338,21.933451)"
         id="g94">
        <g
           id="g93">
          <path
             d="m 2.046875,0 v -16.34375 h 1.625 v 9.5 l 9,-9.515625 h 1.78125 l -6.6875,7.1875 L 14.796875,0 H 12.96875 L 6.734375,-8.203125 3.671875,-5.03125 V 0 Z m 0,0"
             id="path92" />
        </g>
      </g>
    </g>
    <g
       fill="#ffffff"
       fill-opacity="1"
       id="g98"
       transform="translate(295,341)"
       clip-path="url(#clipPath119)">
      <g
         transform="translate(448.26967,21.933451)"
         id="g97">
        <g
           id="g96">
          <path
             d="m 11.609375,-13.296875 c -0.230469,-0.257813 -0.5,-0.492187 -0.8125,-0.703125 -0.304687,-0.207031 -0.648437,-0.382812 -1.03125,-0.53125 -0.375,-0.15625 -0.789063,-0.28125 -1.234375,-0.375 C 8.09375,-15 7.628906,-15.046875 7.140625,-15.046875 5.710938,-15.046875 4.664062,-14.769531 4,-14.21875 3.332031,-13.675781 3,-12.9375 3,-12 c 0,0.636719 0.15625,1.140625 0.46875,1.515625 0.3125,0.367187 0.804688,0.667969 1.484375,0.90625 0.675781,0.230469 1.535156,0.464844 2.578125,0.703125 1.164062,0.25 2.171875,0.546875 3.015625,0.890625 0.851563,0.335937 1.507813,0.789063 1.96875,1.359375 0.457031,0.574219 0.6875,1.355469 0.6875,2.34375 0,0.75 -0.148437,1.402344 -0.4375,1.953125 -0.292969,0.554687 -0.699219,1.015625 -1.21875,1.390625 -0.523437,0.367188 -1.148437,0.636719 -1.875,0.8125 -0.71875,0.1757812 -1.507813,0.265625 -2.359375,0.265625 -0.855469,0 -1.671875,-0.0898438 -2.453125,-0.265625 -0.773437,-0.175781 -1.5,-0.4375 -2.1875,-0.78125 -0.6875,-0.34375 -1.335937,-0.785156 -1.9375,-1.328125 l 0.8125,-1.3125 C 1.835938,-3.242188 2.1875,-2.957031 2.59375,-2.6875 3,-2.414062 3.453125,-2.171875 3.953125,-1.953125 c 0.5,0.210937 1.035156,0.371094 1.609375,0.484375 0.582031,0.117188 1.179688,0.171875 1.796875,0.171875 C 8.660156,-1.296875 9.675781,-1.53125 10.40625,-2 11.132812,-2.476562 11.5,-3.1875 11.5,-4.125 c 0,-0.675781 -0.1875,-1.21875 -0.5625,-1.625 -0.367188,-0.40625 -0.917969,-0.738281 -1.65625,-1 -0.730469,-0.257812 -1.636719,-0.515625 -2.71875,-0.765625 -1.136719,-0.257813 -2.09375,-0.550781 -2.875,-0.875 -0.78125,-0.320313 -1.371094,-0.75 -1.765625,-1.28125 -0.386719,-0.53125 -0.578125,-1.234375 -0.578125,-2.109375 0,-1.007812 0.242188,-1.863281 0.734375,-2.5625 0.5,-0.695312 1.1875,-1.226562 2.0625,-1.59375 0.882813,-0.363281 1.894531,-0.546875 3.03125,-0.546875 0.71875,0 1.390625,0.07422 2.015625,0.21875 0.625,0.148437 1.195312,0.359375 1.71875,0.640625 0.53125,0.273438 1.03125,0.617188 1.5,1.03125 z m 0,0"
             id="path95" />
        </g>
      </g>
    </g>
    <g
       fill="#ffffff"
       fill-opacity="1"
       id="g101"
       transform="translate(295,341)"
       clip-path="url(#clipPath118)">
      <g
         transform="translate(479.17596,21.933451)"
         id="g100">
        <g
           id="g99">
          <path
             d="M 16.546875,0 V -13.328125 L 10.625,-2.96875 H 9.609375 l -5.9375,-10.359375 V 0 h -1.625 v -16.359375 h 1.65625 l 6.390625,11.203125 6.4375,-11.203125 h 1.625 V 0 Z m 0,0"
             id="path98" />
        </g>
      </g>
    </g>
    <g
       fill="#ffffff"
       fill-opacity="1"
       id="g104"
       transform="translate(295,341)"
       clip-path="url(#clipPath117)">
      <g
         transform="translate(516.3037,21.933451)"
         id="g103">
        <g
           id="g102">
          <path
             d="m 2.046875,0 v -16.359375 h 1.625 V 0 Z m 0,0"
             id="path101" />
        </g>
      </g>
    </g>
    <g
       fill="#ffffff"
       fill-opacity="1"
       id="g107"
       transform="translate(295,341)"
       clip-path="url(#clipPath116)">
      <g
         transform="translate(538.93786,21.933451)"
         id="g106">
        <g
           id="g105">
          <path
             d="M 13.671875,-14.9375 H 7.84375 V 0 h -1.625 V -14.9375 H 0.390625 v -1.421875 h 13.28125 z m 0,0"
             id="path104" />
        </g>
      </g>
    </g>
    <g
       fill="#ffffff"
       fill-opacity="1"
       id="g110"
       transform="translate(295,341)"
       clip-path="url(#clipPath115)">
      <g
         transform="translate(569.91327,21.933451)"
         id="g109">
        <g
           id="g108">
          <path
             d="M 14.953125,-16.359375 V 0 H 13.375 V -7.65625 H 3.671875 V 0 h -1.625 v -16.359375 h 1.625 v 7.28125 H 13.375 v -7.28125 z m 0,0"
             id="path107" />
        </g>
      </g>
    </g>
  </g>
  <g
     fill="#ffffff"
     fill-opacity="1"
     id="g113"
     transform="translate(208,202.06371)">
    <g
       transform="translate(603.84775,21.933451)"
       id="g112">
      <g
         id="g111" />
    </g>
  </g>
</svg>
