<?xml version="1.0" encoding="UTF-8" standalone="no"?>
<!-- Uploaded to: SVG Repo, www.svgrepo.com, Generator: SVG Repo Mixer Tools -->

<svg
   fill="#000000"
   height="800"
   width="800"
   version="1.1"
   id="Layer_1"
   viewBox="0 0 512 512"
   xml:space="preserve"
   sodipodi:docname="open-padlock.svg"
   inkscape:version="1.4.2 (f4327f4, 2025-05-13)"
   xmlns:inkscape="http://www.inkscape.org/namespaces/inkscape"
   xmlns:sodipodi="http://sodipodi.sourceforge.net/DTD/sodipodi-0.dtd"
   xmlns="http://www.w3.org/2000/svg"
   xmlns:svg="http://www.w3.org/2000/svg"><sodipodi:namedview
   id="namedview1"
   pagecolor="#ffffff"
   bordercolor="#000000"
   borderopacity="0.25"
   inkscape:showpageshadow="2"
   inkscape:pageopacity="0.0"
   inkscape:pagecheckerboard="0"
   inkscape:deskcolor="#d1d1d1"
   inkscape:zoom="1.06375"
   inkscape:cx="400"
   inkscape:cy="400"
   inkscape:window-width="1920"
   inkscape:window-height="1111"
   inkscape:window-x="-9"
   inkscape:window-y="-9"
   inkscape:window-maximized="1"
   inkscape:current-layer="Layer_1" /><defs
   id="defs6" />
<g
   id="g6"
   transform="matrix(-1,0,0,1,461.57,0)">
	<path
   d="M 372.58,223.278 H 183.734 v -86.402 c 0,-12.711 5.015,-24.633 14.122,-33.567 9.102,-8.93 21.113,-13.662 33.845,-13.475 25.44,0.482 46.136,22.036 46.136,48.046 v 7.123 c 0,24.765 20.148,44.912 44.912,44.912 24.765,0 44.912,-20.148 44.912,-44.912 v -8.127 C 367.661,100.117 353.24,65.59 327.055,39.658 301.199,14.051 267.065,0 230.801,0 230.348,0 229.891,0.003 229.437,0.006 154.708,0.73 93.909,62.84 93.909,138.457 v 84.821 H 88.99 c -24.41,0 -44.271,19.86 -44.271,44.271 v 200.18 C 44.72,492.14 64.58,512 88.991,512 H 372.58 c 24.41,0 44.271,-19.86 44.271,-44.271 V 267.549 C 416.85,243.138 396.99,223.278 372.58,223.278 Z M 119.573,138.457 c 0,-61.603 49.396,-112.2 110.112,-112.789 0.37,-0.003 0.738,-0.005 1.107,-0.005 29.456,0 57.191,11.421 78.203,32.229 21.281,21.075 33,49.125 33,78.983 v 8.128 c 0,10.613 -8.635,19.248 -19.248,19.248 -10.613,0 -19.248,-8.635 -19.248,-19.248 v -7.123 c 0,-39.896 -31.992,-72.959 -71.313,-73.705 -19.705,-0.379 -38.246,7.019 -52.305,20.815 -14.065,13.802 -21.812,32.228 -21.812,51.888 v 86.401 h -38.496 z m 271.613,329.272 c 0,10.259 -8.347,18.607 -18.607,18.607 H 88.991 c -10.259,0 -18.607,-8.347 -18.607,-18.607 v -200.18 c 0,-10.259 8.347,-18.607 18.607,-18.607 H 372.58 c 10.259,0 18.607,8.347 18.607,18.607 v 200.18 z"
   id="path1"
   style="fill:#dfff00;fill-opacity:1" /><path
   d="m 230.785,274.179 c -31.604,0 -57.317,25.712 -57.317,57.316 0,16.23 6.931,31.648 18.821,42.446 v 74.326 c 0,7.086 5.745,12.832 12.832,12.832 h 51.328 c 7.087,0 12.832,-5.746 12.832,-12.832 v -74.326 c 11.89,-10.798 18.821,-26.216 18.821,-42.446 -10e-4,-31.604 -25.713,-57.316 -57.317,-57.316 z m 18.25,83.167 c -3.398,2.406 -5.418,6.311 -5.418,10.474 v 67.615 H 217.953 V 367.82 c 0,-4.163 -2.02,-8.068 -5.418,-10.474 -8.392,-5.941 -13.402,-15.604 -13.402,-25.852 0,-17.453 14.199,-31.652 31.653,-31.652 17.454,0 31.653,14.199 31.653,31.652 -0.002,10.247 -5.012,19.911 -13.404,25.852 z"
   id="path2"
   style="fill:#dfff00;fill-opacity:1" />
</g>
</svg>
